<svg xmlns="http://www.w3.org/2000/svg" viewBox="0 0 40 48"><defs><style>.cls-1{fill:#1e0f00;}</style></defs><title>Asset 361</title><g id="Layer_2" data-name="Layer 2"><g id="_1" data-name="1"><path class="cls-1" d="M20,48C7.85,48,0,40.15,0,28,0,15.05,8.74,0,20,0S40,15.05,40,28C40,40.15,32.15,48,20,48ZM20,2C10,2,2,16.22,2,28c0,13.27,9.3,18,18,18s18-4.73,18-18C38,16.22,30,2,20,2Z"/><path class="cls-1" d="M9.93,16.37l-1.86-.74C10.11,10.51,14.72,5,20,5V7C15.84,7,11.79,11.71,9.93,16.37Z"/><rect class="cls-1" x="1" y="27" width="38" height="2"/><rect class="cls-1" x="19" y="20" width="2" height="6"/><rect class="cls-1" x="9" y="20" width="2" height="6"/><rect class="cls-1" x="14" y="23" width="2" height="3"/><rect class="cls-1" x="4" y="23" width="2" height="3"/><rect class="cls-1" x="29" y="20" width="2" height="6"/><rect class="cls-1" x="34" y="23" width="2" height="3"/><rect class="cls-1" x="24" y="23" width="2" height="3"/><path class="cls-1" d="M25,41H15a1,1,0,0,1-.85-1.53l5-8a1,1,0,0,1,1.7,0l5,8A1,1,0,0,1,25,41Zm-8.2-2h6.4L20,33.89Z"/></g></g></svg>